<?xml version="1.0" standalone="no"?>
<!DOCTYPE svg PUBLIC "-//W3C//DTD SVG 20010904//EN"
 "http://www.w3.org/TR/2001/REC-SVG-20010904/DTD/svg10.dtd">
<svg version="1.0" xmlns="http://www.w3.org/2000/svg"
 width="30.000000pt" height="30.000000pt" viewBox="0 0 30.000000 30.000000"
 preserveAspectRatio="xMidYMid meet">

<g transform="translate(0.000000,30.000000) scale(0.100000,-0.100000)"
fill="#000000" stroke="none">
<path d="M78 279 c-43 -22 -78 -81 -78 -129 0 -76 74 -150 150 -150 76 0 150
74 150 150 0 50 -35 107 -80 130 -49 25 -94 25 -142 -1z m92 -70 c49 -11 61
-24 38 -47 -8 -8 -8 -15 2 -27 10 -13 9 -15 -8 -15 -11 0 -35 17 -53 38 l-32
37 27 -47 c20 -36 24 -52 17 -70 -9 -22 -9 -22 -16 -3 -5 11 -19 47 -31 79
-13 33 -24 61 -24 63 0 6 29 3 80 -8z"/>
</g>
</svg>
